<svg width="34" height="32" viewBox="0 0 34 32" fill="none" xmlns="http://www.w3.org/2000/svg">
<path fill-rule="evenodd" clip-rule="evenodd" d="M7 16V14C7 11.2386 9.23858 9 12 9C14.7614 9 17 11.2386 17 14V16H20C20.5523 16 21 16.4477 21 17V29C21 29.5523 20.5523 30 20 30H4C3.44772 30 3 29.5523 3 29V17C3 16.4477 3.44772 16 4 16H7ZM7 18H5V28H19V18H17V20H15V18H9V20H7V18ZM15 14V16H9V14C9 12.3431 10.3431 11 12 11C13.6569 11 15 12.3431 15 14Z" fill="#F1B301"/>
<g clip-path="url(#clip0_14537_2)">
</g>
</svg>
